<svg width="18" height="18" viewBox="0 0 18 18" fill="none" xmlns="http://www.w3.org/2000/svg">
<path d="M6.00234 18C6.79799 18 7.56105 17.6839 8.12366 17.1213C8.68627 16.5587 9.00234 15.7956 9.00234 15V12H6.00234C5.20669 12 4.44363 12.3161 3.88102 12.8787C3.31841 13.4413 3.00234 14.2044 3.00234 15C3.00234 15.7956 3.31841 16.5587 3.88102 17.1213C4.44363 17.6839 5.20669 18 6.00234 18V18Z" fill="#0ACF83"/>
<path d="M3.00234 9C3.00234 8.20435 3.31841 7.44129 3.88102 6.87868C4.44363 6.31607 5.20669 6 6.00234 6H9.00234V12H6.00234C5.20669 12 4.44363 11.6839 3.88102 11.1213C3.31841 10.5587 3.00234 9.79565 3.00234 9V9Z" fill="#A259FF"/>
<path d="M3.00234 3C3.00234 2.20476 3.31809 1.44205 3.88019 0.879508C4.4423 0.316966 5.20476 0.000621284 6 0L9 0V6H6.00234C5.20669 6 4.44363 5.68393 3.88102 5.12132C3.31841 4.55871 3.00234 3.79565 3.00234 3V3Z" fill="#F24E1E"/>
<path d="M9.00234 0H12.0023C12.798 0 13.5611 0.316071 14.1237 0.87868C14.6863 1.44129 15.0023 2.20435 15.0023 3C15.0023 3.79565 14.6863 4.55871 14.1237 5.12132C13.5611 5.68393 12.798 6 12.0023 6H9.00234V0Z" fill="#FF7262"/>
<path d="M15.0023 9C15.0023 9.79565 14.6863 10.5587 14.1237 11.1213C13.5611 11.6839 12.798 12 12.0023 12C11.2067 12 10.4436 11.6839 9.88102 11.1213C9.31841 10.5587 9.00234 9.79565 9.00234 9C9.00234 8.20435 9.31841 7.44129 9.88102 6.87868C10.4436 6.31607 11.2067 6 12.0023 6C12.798 6 13.5611 6.31607 14.1237 6.87868C14.6863 7.44129 15.0023 8.20435 15.0023 9V9Z" fill="#1ABCFE"/>
</svg>
