<svg width="18" height="18" viewBox="0 0 18 18" fill="none" xmlns="http://www.w3.org/2000/svg">
<g clip-path="url(#clip0)">
<path d="M5.83242 13.9711C5.83242 14.0414 5.75156 14.0977 5.64961 14.0977C5.53359 14.1082 5.45273 14.052 5.45273 13.9711C5.45273 13.9008 5.53359 13.8445 5.63555 13.8445C5.74102 13.834 5.83242 13.8902 5.83242 13.9711ZM4.73906 13.8129C4.71445 13.8832 4.78477 13.9641 4.89023 13.9852C4.98164 14.0203 5.08711 13.9852 5.1082 13.9148C5.1293 13.8445 5.0625 13.7637 4.95703 13.732C4.86563 13.7074 4.76367 13.7426 4.73906 13.8129ZM6.29297 13.7531C6.19102 13.7777 6.1207 13.8445 6.13125 13.9254C6.1418 13.9957 6.2332 14.0414 6.33867 14.0168C6.44063 13.9922 6.51094 13.9254 6.50039 13.8551C6.48984 13.7883 6.39492 13.7426 6.29297 13.7531ZM8.60625 0.28125C3.73008 0.28125 0 3.9832 0 8.85938C0 12.7582 2.45391 16.0945 5.95898 17.2688C6.40898 17.3496 6.56719 17.0719 6.56719 16.8434C6.56719 16.6254 6.55664 15.423 6.55664 14.6848C6.55664 14.6848 4.0957 15.2121 3.57891 13.6371C3.57891 13.6371 3.17812 12.6141 2.60156 12.3504C2.60156 12.3504 1.79648 11.7984 2.65781 11.809C2.65781 11.809 3.5332 11.8793 4.01484 12.716C4.78477 14.073 6.075 13.6828 6.57773 13.4508C6.65859 12.8883 6.88711 12.498 7.14023 12.266C5.175 12.048 3.19219 11.7633 3.19219 8.38125C3.19219 7.41445 3.45938 6.9293 4.02188 6.31055C3.93047 6.08203 3.63164 5.13984 4.11328 3.92344C4.84805 3.69492 6.53906 4.87266 6.53906 4.87266C7.24219 4.67578 7.99805 4.57383 8.74688 4.57383C9.4957 4.57383 10.2516 4.67578 10.9547 4.87266C10.9547 4.87266 12.6457 3.69141 13.3805 3.92344C13.8621 5.14336 13.5633 6.08203 13.4719 6.31055C14.0344 6.93281 14.3789 7.41797 14.3789 8.38125C14.3789 11.7738 12.3082 12.0445 10.343 12.266C10.6664 12.5437 10.9406 13.0711 10.9406 13.8973C10.9406 15.082 10.9301 16.548 10.9301 16.8363C10.9301 17.0648 11.0918 17.3426 11.5383 17.2617C15.0539 16.0945 17.4375 12.7582 17.4375 8.85938C17.4375 3.9832 13.4824 0.28125 8.60625 0.28125ZM3.41719 12.4066C3.37148 12.4418 3.38203 12.5227 3.4418 12.5895C3.49805 12.6457 3.57891 12.6703 3.62461 12.6246C3.67031 12.5895 3.65977 12.5086 3.6 12.4418C3.54375 12.3855 3.46289 12.3609 3.41719 12.4066ZM3.0375 12.1219C3.01289 12.1676 3.04805 12.2238 3.11836 12.259C3.17461 12.2941 3.24492 12.2836 3.26953 12.2344C3.29414 12.1887 3.25898 12.1324 3.18867 12.0973C3.11836 12.0762 3.06211 12.0867 3.0375 12.1219ZM4.17656 13.3734C4.12031 13.4191 4.14141 13.5246 4.22227 13.5914C4.30312 13.6723 4.40508 13.6828 4.45078 13.6266C4.49648 13.5809 4.47539 13.4754 4.40508 13.4086C4.32773 13.3277 4.22227 13.3172 4.17656 13.3734ZM3.77578 12.8566C3.71953 12.8918 3.71953 12.9832 3.77578 13.0641C3.83203 13.1449 3.92695 13.1801 3.97266 13.1449C4.02891 13.0992 4.02891 13.0078 3.97266 12.927C3.92344 12.8461 3.83203 12.8109 3.77578 12.8566Z" fill="black"/>
</g>
<defs>
<clipPath id="clip0">
<rect width="17.4375" height="18" fill="white"/>
</clipPath>
</defs>
</svg>
